<mxfile host="Electron" modified="2023-12-22T07:26:06.902Z" agent="Mozilla/5.0 (Windows NT 10.0; Win64; x64) AppleWebKit/537.36 (KHTML, like Gecko) draw.io/22.1.11 Chrome/114.0.5735.289 Electron/25.9.8 Safari/537.36" etag="56P8tZT3LtPgJgEnlsQQ" version="22.1.11" type="device">
  <diagram name="Page-1" id="UhIAvdrdmDCWspnheduX">
    <mxGraphModel dx="1154" dy="577" grid="1" gridSize="10" guides="1" tooltips="1" connect="1" arrows="1" fold="1" page="1" pageScale="1" pageWidth="850" pageHeight="1100" math="0" shadow="0">
      <root>
        <mxCell id="0" />
        <mxCell id="1" parent="0" />
        <mxCell id="MWakW46WszI1gxnI1x-P-1" value="Користувач" style="shape=umlActor;verticalLabelPosition=bottom;verticalAlign=top;html=1;outlineConnect=0;" vertex="1" parent="1">
          <mxGeometry x="120" y="320" width="30" height="60" as="geometry" />
        </mxCell>
        <mxCell id="MWakW46WszI1gxnI1x-P-2" value="" style="rounded=1;whiteSpace=wrap;html=1;" vertex="1" parent="1">
          <mxGeometry x="210" y="195" width="220" height="310" as="geometry" />
        </mxCell>
        <mxCell id="MWakW46WszI1gxnI1x-P-3" value="&lt;font style=&quot;font-size: 11px;&quot;&gt;Почати роботу з програмою&lt;/font&gt;" style="ellipse;whiteSpace=wrap;html=1;" vertex="1" parent="1">
          <mxGeometry x="218.32999999999998" y="200" width="83.33" height="50" as="geometry" />
        </mxCell>
        <mxCell id="MWakW46WszI1gxnI1x-P-6" value="Увійти в акаунт" style="ellipse;whiteSpace=wrap;html=1;" vertex="1" parent="1">
          <mxGeometry x="301.66" y="220" width="83.34" height="50" as="geometry" />
        </mxCell>
        <mxCell id="MWakW46WszI1gxnI1x-P-8" value="&lt;font style=&quot;font-size: 11px;&quot;&gt;Знайти необхідну гру&lt;/font&gt;" style="ellipse;whiteSpace=wrap;html=1;" vertex="1" parent="1">
          <mxGeometry x="342" y="270" width="83.34" height="50" as="geometry" />
        </mxCell>
        <mxCell id="MWakW46WszI1gxnI1x-P-9" value="&lt;font style=&quot;font-size: 11px;&quot;&gt;Переглянути наявну інформацю&lt;/font&gt;" style="ellipse;whiteSpace=wrap;html=1;" vertex="1" parent="1">
          <mxGeometry x="333.68" y="325" width="91.66" height="50" as="geometry" />
        </mxCell>
        <mxCell id="MWakW46WszI1gxnI1x-P-10" value="" style="endArrow=none;html=1;rounded=0;entryX=0;entryY=1;entryDx=0;entryDy=0;" edge="1" parent="1" target="MWakW46WszI1gxnI1x-P-3">
          <mxGeometry width="50" height="50" relative="1" as="geometry">
            <mxPoint x="160" y="330" as="sourcePoint" />
            <mxPoint x="370" y="400" as="targetPoint" />
          </mxGeometry>
        </mxCell>
        <mxCell id="MWakW46WszI1gxnI1x-P-11" value="" style="endArrow=none;html=1;rounded=0;" edge="1" parent="1" target="MWakW46WszI1gxnI1x-P-6">
          <mxGeometry width="50" height="50" relative="1" as="geometry">
            <mxPoint x="160" y="340" as="sourcePoint" />
            <mxPoint x="370" y="400" as="targetPoint" />
          </mxGeometry>
        </mxCell>
        <mxCell id="MWakW46WszI1gxnI1x-P-12" value="" style="endArrow=none;html=1;rounded=0;entryX=0;entryY=0.5;entryDx=0;entryDy=0;" edge="1" parent="1" target="MWakW46WszI1gxnI1x-P-8">
          <mxGeometry width="50" height="50" relative="1" as="geometry">
            <mxPoint x="160" y="350" as="sourcePoint" />
            <mxPoint x="370" y="400" as="targetPoint" />
          </mxGeometry>
        </mxCell>
        <mxCell id="MWakW46WszI1gxnI1x-P-13" value="" style="endArrow=none;html=1;rounded=0;" edge="1" parent="1" target="MWakW46WszI1gxnI1x-P-9">
          <mxGeometry width="50" height="50" relative="1" as="geometry">
            <mxPoint x="160" y="360" as="sourcePoint" />
            <mxPoint x="370" y="400" as="targetPoint" />
          </mxGeometry>
        </mxCell>
        <mxCell id="MWakW46WszI1gxnI1x-P-14" value="Придбати гру" style="ellipse;whiteSpace=wrap;html=1;" vertex="1" parent="1">
          <mxGeometry x="333" y="380" width="91.66" height="50" as="geometry" />
        </mxCell>
        <mxCell id="MWakW46WszI1gxnI1x-P-15" value="&lt;font style=&quot;font-size: 11px;&quot;&gt;Зачекати на підтвердження купівлі&lt;/font&gt;" style="ellipse;whiteSpace=wrap;html=1;" vertex="1" parent="1">
          <mxGeometry x="301.65999999999997" y="430" width="91.66" height="50" as="geometry" />
        </mxCell>
        <mxCell id="MWakW46WszI1gxnI1x-P-16" value="Перевірити наявність гри" style="ellipse;whiteSpace=wrap;html=1;" vertex="1" parent="1">
          <mxGeometry x="214.16" y="450" width="91.66" height="50" as="geometry" />
        </mxCell>
        <mxCell id="MWakW46WszI1gxnI1x-P-17" value="" style="endArrow=none;html=1;rounded=0;" edge="1" parent="1" target="MWakW46WszI1gxnI1x-P-14">
          <mxGeometry width="50" height="50" relative="1" as="geometry">
            <mxPoint x="160" y="370" as="sourcePoint" />
            <mxPoint x="240" y="470" as="targetPoint" />
          </mxGeometry>
        </mxCell>
        <mxCell id="MWakW46WszI1gxnI1x-P-18" value="" style="endArrow=none;html=1;rounded=0;entryX=0;entryY=0;entryDx=0;entryDy=0;" edge="1" parent="1" target="MWakW46WszI1gxnI1x-P-15">
          <mxGeometry width="50" height="50" relative="1" as="geometry">
            <mxPoint x="160" y="380" as="sourcePoint" />
            <mxPoint x="240" y="410" as="targetPoint" />
          </mxGeometry>
        </mxCell>
        <mxCell id="MWakW46WszI1gxnI1x-P-19" value="" style="endArrow=none;html=1;rounded=0;entryX=0;entryY=0;entryDx=0;entryDy=0;" edge="1" parent="1" target="MWakW46WszI1gxnI1x-P-16">
          <mxGeometry width="50" height="50" relative="1" as="geometry">
            <mxPoint x="160" y="390" as="sourcePoint" />
            <mxPoint x="370" y="330" as="targetPoint" />
          </mxGeometry>
        </mxCell>
      </root>
    </mxGraphModel>
  </diagram>
</mxfile>
